<?xml version="1.0" encoding="utf-8"?>
<!-- Generator: Adobe Illustrator 18.1.1, SVG Export Plug-In . SVG Version: 6.00 Build 0)  -->
<!DOCTYPE svg PUBLIC "-//W3C//DTD SVG 1.1//EN" "http://www.w3.org/Graphics/SVG/1.1/DTD/svg11.dtd">
<svg xmlns="http://www.w3.org/2000/svg" xmlns:xlink="http://www.w3.org/1999/xlink" version="1.1" id="Layer_1" x="0px" y="0px" viewBox="0 0 398.5 52.7" xml:space="preserve">
<g>
	<path fill="#FFB81C" d="M91.7,22.6h29.8V1.8h3.1v49h-3.1V25.6H91.7v25.3h-3.1v-49h3.1V22.6z"/>
	<path fill="#FFB81C" d="M157.6,1.2c6.9,0,12.8,2.5,17.9,7.4c5,4.9,7.5,10.9,7.5,17.7c0,6.9-2.5,12.8-7.5,17.7   c-5,4.9-11,7.4-17.9,7.4c-6.9,0-12.8-2.5-17.9-7.4c-5-4.9-7.5-10.9-7.5-17.7c0-6.9,2.5-12.8,7.5-17.7   C144.7,3.7,150.7,1.2,157.6,1.2z M157.6,4.1c-6.1,0-11.4,2.2-15.7,6.6c-4.4,4.4-6.6,9.6-6.6,15.7c0,6.1,2.2,11.3,6.6,15.7   c4.4,4.4,9.6,6.6,15.7,6.6c6.1,0,11.3-2.2,15.7-6.6c4.4-4.4,6.6-9.6,6.6-15.6c0-6.1-2.2-11.3-6.6-15.7   C168.9,6.3,163.7,4.1,157.6,4.1z"/>
	<path fill="#FFB81C" d="M220.3,31.5V1.8h3.1v30.5c0,2.2,0,3.8-0.1,4.9c-0.1,1.1-0.4,2.5-0.9,4.1c-0.5,1.6-1.3,3.1-2.3,4.4   c-1.6,1.9-3.6,3.3-5.9,4.3c-2.4,1-4.8,1.5-7.4,1.5c-2.6,0-5-0.5-7.4-1.5c-2.4-1-4.3-2.4-5.9-4.3c-1-1.3-1.8-2.8-2.3-4.4   c-0.5-1.6-0.8-3-0.9-4.1c-0.1-1.1-0.1-2.8-0.1-4.9V1.8h3.1v29.6c0,2,0,3.5,0.1,4.6c0.1,1.1,0.3,2.4,0.7,3.9s1,2.8,1.8,3.8   c1.1,1.5,2.7,2.6,4.8,3.5c2.1,0.8,4.1,1.3,6.2,1.3c2,0,4.1-0.4,6.2-1.3c2.1-0.8,3.7-2,4.8-3.5c0.8-1,1.4-2.3,1.8-3.8   c0.4-1.5,0.6-2.8,0.7-3.9C220.3,35,220.3,33.5,220.3,31.5z"/>
	<path fill="#FFB81C" d="M258.4,8.1l-2.2,1.8c-2.4-3.9-5.7-5.8-9.9-5.8c-2.6,0-4.8,0.9-6.6,2.7c-1.8,1.8-2.7,4-2.7,6.6   c0,1.2,0.2,2.3,0.7,3.2c0.5,1,1.3,1.8,2.3,2.6c1.1,0.8,2,1.4,2.6,1.7c0.6,0.3,1.7,0.9,3.2,1.6l9.4,4.9c3.7,2.3,5.6,5.6,5.6,9.8   c0,4-1.5,7.4-4.6,10.1c-3.1,2.8-6.7,4.1-10.7,4.1c-3.3,0-6.3-1-8.8-2.9c-2.6-1.9-4.4-4.5-5.6-7.7l2.7-1.2c2.3,5.9,6.3,8.8,11.8,8.8   c3.2,0,6.1-1.1,8.5-3.4c2.4-2.3,3.6-5,3.6-8.2c0-1-0.2-1.9-0.6-2.8c-0.4-0.9-0.8-1.6-1.3-2.1c-0.5-0.5-1.2-1.2-2.2-1.9   c-1-0.7-1.8-1.2-2.2-1.4c-0.5-0.2-1.3-0.7-2.6-1.3c-0.4-0.2-0.7-0.4-0.9-0.5l-8.8-4.7c-3.4-2.1-5.1-5-5.1-8.8   c0-3.6,1.2-6.6,3.5-8.9c2.3-2.3,5.4-3.5,9-3.5c2.5,0,4.8,0.6,7,1.9C255.6,4.3,257.3,6,258.4,8.1z"/>
	<path fill="#FFB81C" d="M279.8,4.8v46.1h-3.1V4.8H264V1.8h28.5v2.9H279.8z"/>
	<path fill="#FFB81C" d="M320.6,1.2c6.9,0,12.8,2.5,17.9,7.4c5,4.9,7.5,10.9,7.5,17.7c0,6.9-2.5,12.8-7.5,17.7   c-5,4.9-11,7.4-17.9,7.4c-6.9,0-12.8-2.5-17.9-7.4c-5-4.9-7.5-10.9-7.5-17.7c0-6.9,2.5-12.8,7.5-17.7S313.7,1.2,320.6,1.2z    M320.6,4.1c-6.1,0-11.4,2.2-15.7,6.6c-4.4,4.4-6.6,9.6-6.6,15.7c0,6.1,2.2,11.3,6.6,15.7c4.4,4.4,9.6,6.6,15.7,6.6   c6.1,0,11.3-2.2,15.7-6.6c4.4-4.4,6.6-9.6,6.6-15.6c0-6.1-2.2-11.3-6.6-15.7C331.9,6.3,326.7,4.1,320.6,4.1z"/>
	<path fill="#FFB81C" d="M397.9,1.8v50.6L356.8,8.7v42.1h-3.1V1.2l41.1,43.4V1.8H397.9z"/>
</g>
<g>
	<path fill="#FFFFFF" d="M13.7,50.9H1.1v-49h9.8c2.3,0,4.2,0.2,5.8,0.6c1.6,0.4,3,1.1,4.4,2.3c2.7,2.4,4.1,5.8,4.1,10.1   c0,4.5-1.9,7.9-5.7,10c3,0.6,5.5,2,7.3,4.3c1.9,2.3,2.8,4.9,2.8,8.1c0,4.2-1.5,7.5-4.5,10.1C22.3,49.7,18.5,50.9,13.7,50.9z    M4.2,4.8v19.3h5.4c0.1,0,0.5,0,1.1,0s0.9,0,1.1,0c0.1,0,0.4,0,0.9,0c0.5,0,0.8,0,1-0.1c0.2,0,0.5-0.1,0.9-0.1   c0.4-0.1,0.7-0.1,1-0.2c0.2-0.1,0.5-0.2,0.9-0.3c0.3-0.1,0.7-0.3,1-0.5c0.3-0.2,0.6-0.4,0.9-0.6c2.4-1.7,3.6-4.4,3.6-7.9   c0-3.7-1.3-6.4-4-8.1c-1.6-1-4.4-1.6-8.4-1.6H4.2z M4.2,27v20.9h7.5c1.7,0,2.9,0,3.6,0c0.7,0,1.7-0.2,3-0.5   c1.3-0.3,2.4-0.8,3.3-1.4c3.2-2.2,4.8-5.1,4.8-8.7c0-1.9-0.4-3.6-1.3-5.2c-0.9-1.6-2.1-2.8-3.7-3.6c-2.1-1-5.5-1.6-10.3-1.6H4.2z"/>
	<path fill="#FFFFFF" d="M41,1.8v49h-3.1v-49H41z"/>
	<path fill="#FFFFFF" d="M74,1.2c6.9,0,12.8,2.5,17.9,7.4c5,4.9,7.5,10.9,7.5,17.7c0,6.9-2.5,12.8-7.5,17.7c-5,4.9-11,7.4-17.9,7.4   c-6.9,0-12.8-2.5-17.9-7.4c-5-4.9-7.5-10.9-7.5-17.7c0-6.9,2.5-12.8,7.5-17.7C61.1,3.7,67.1,1.2,74,1.2z M74,4.1   c-6.1,0-11.4,2.2-15.7,6.6c-4.4,4.4-6.6,9.6-6.6,15.7c0,6.1,2.2,11.3,6.6,15.7c4.4,4.4,9.6,6.6,15.7,6.6c6.1,0,11.3-2.2,15.7-6.6   c4.4-4.4,6.6-9.6,6.6-15.6c0-6.1-2.2-11.3-6.6-15.7C85.3,6.3,80.1,4.1,74,4.1z"/>
</g>
</svg>
